<svg width="370" height="269" viewBox="0 0 370 269" xmlns="http://www.w3.org/2000/svg">
  <style>
    .title { font: 600 18px 'Segoe UI', Ubuntu, sans-serif; fill: #1abc9c; }
    .label { font: 400 13px 'Segoe UI', Ubuntu, sans-serif; fill: #c9d1d9; }
    .value { font: 600 13px 'Segoe UI', Ubuntu, sans-serif; fill: #c9d1d9; }
    .stagger { opacity: 0; animation: fadeIn 0.4s ease-in-out forwards; }
    @keyframes fadeIn { to { opacity: 1; } }
  </style>
  <rect x="0.5" y="0.5" rx="8" width="369" height="268" fill="#0d1117" stroke="#30363d" />
  <text x="25" y="35" class="title">Most Used Languages</text>
  
  <g class="stagger" style="animation-delay: 0ms" transform="translate(25, 55)">
    <text class="label" x="0" y="0">JavaScript</text>
    <text class="value" x="320" y="0" text-anchor="end">73.8%</text>
    <rect x="0" y="8" width="320" height="6" rx="3" fill="#30363d" />
    <rect x="0" y="8" width="236.1349659557767" height="6" rx="3" fill="#f1e05a" />
  </g>

  <g class="stagger" style="animation-delay: 100ms" transform="translate(25, 89)">
    <text class="label" x="0" y="0">Jupyter Notebook</text>
    <text class="value" x="320" y="0" text-anchor="end">13.2%</text>
    <rect x="0" y="8" width="320" height="6" rx="3" fill="#30363d" />
    <rect x="0" y="8" width="42.11405049234524" height="6" rx="3" fill="#DA5B0B" />
  </g>

  <g class="stagger" style="animation-delay: 200ms" transform="translate(25, 123)">
    <text class="label" x="0" y="0">CSS</text>
    <text class="value" x="320" y="0" text-anchor="end">6.2%</text>
    <rect x="0" y="8" width="320" height="6" rx="3" fill="#30363d" />
    <rect x="0" y="8" width="19.944462974646665" height="6" rx="3" fill="#663399" />
  </g>

  <g class="stagger" style="animation-delay: 300ms" transform="translate(25, 157)">
    <text class="label" x="0" y="0">HTML</text>
    <text class="value" x="320" y="0" text-anchor="end">4.3%</text>
    <rect x="0" y="8" width="320" height="6" rx="3" fill="#30363d" />
    <rect x="0" y="8" width="13.889132237327686" height="6" rx="3" fill="#e34c26" />
  </g>

  <g class="stagger" style="animation-delay: 400ms" transform="translate(25, 191)">
    <text class="label" x="0" y="0">Python</text>
    <text class="value" x="320" y="0" text-anchor="end">1.4%</text>
    <rect x="0" y="8" width="320" height="6" rx="3" fill="#30363d" />
    <rect x="0" y="8" width="4.372877677893291" height="6" rx="3" fill="#3572A5" />
  </g>

  <g class="stagger" style="animation-delay: 500ms" transform="translate(25, 225)">
    <text class="label" x="0" y="0">EJS</text>
    <text class="value" x="320" y="0" text-anchor="end">1.1%</text>
    <rect x="0" y="8" width="320" height="6" rx="3" fill="#30363d" />
    <rect x="0" y="8" width="4" height="6" rx="3" fill="#a91e50" />
  </g>
</svg>